<svg width="26" height="26" viewBox="0 0 26 26" fill="none" xmlns="http://www.w3.org/2000/svg">
<path d="M10.3462 5.97239C10.3934 5.84237 10.4795 5.73004 10.5927 5.65066C10.706 5.57127 10.8409 5.52869 10.9793 5.52869C11.1176 5.52869 11.2525 5.57127 11.3658 5.65066C11.479 5.73004 11.5651 5.84237 11.6123 5.97239L12.2561 7.73149C12.7611 9.11052 13.5606 10.3629 14.5991 11.4013C15.6375 12.4397 16.8899 13.2393 18.2689 13.7442L20.0266 14.3881C20.1567 14.4352 20.269 14.5213 20.3484 14.6346C20.4278 14.7478 20.4703 14.8828 20.4703 15.0211C20.4703 15.1594 20.4278 15.2944 20.3484 15.4077C20.269 15.5209 20.1567 15.607 20.0266 15.6542L18.2689 16.298C16.8899 16.803 15.6375 17.6025 14.5991 18.6409C13.5606 19.6794 12.7611 20.9317 12.2561 22.3108L11.6123 24.0685C11.5651 24.1985 11.479 24.3109 11.3658 24.3902C11.2525 24.4696 11.1176 24.5122 10.9793 24.5122C10.8409 24.5122 10.706 24.4696 10.5927 24.3902C10.4795 24.3109 10.3934 24.1985 10.3462 24.0685L9.70235 22.3108C9.19741 20.9317 8.39787 19.6794 7.35944 18.6409C6.32101 17.6025 5.06865 16.803 3.68962 16.298L1.93052 15.6542C1.8005 15.607 1.68817 15.5209 1.60879 15.4077C1.5294 15.2944 1.48682 15.1594 1.48682 15.0211C1.48682 14.8828 1.5294 14.7478 1.60879 14.6346C1.68817 14.5213 1.8005 14.4352 1.93052 14.3881L3.68962 13.7442C5.06865 13.2393 6.32101 12.4397 7.35944 11.4013C8.39787 10.3629 9.19741 9.11052 9.70235 7.73149L10.3462 5.97239Z" fill="url(#paint0_linear_4013_66632)"/>
<path d="M19.6895 3.06434C19.7071 3.01558 19.7394 2.97346 19.7819 2.94369C19.8244 2.91392 19.875 2.89795 19.9269 2.89795C19.9787 2.89795 20.0293 2.91392 20.0718 2.94369C20.1143 2.97346 20.1466 3.01558 20.1642 3.06434L20.4057 3.724C20.595 4.24114 20.8949 4.71077 21.2843 5.10018C21.6737 5.4896 22.1433 5.78942 22.6605 5.97878L23.3196 6.22021C23.3684 6.23791 23.4105 6.27019 23.4403 6.31266C23.47 6.35514 23.486 6.40574 23.486 6.45761C23.486 6.50948 23.47 6.56009 23.4403 6.60256C23.4105 6.64504 23.3684 6.67731 23.3196 6.69501L22.6605 6.93645C22.1433 7.1258 21.6737 7.42563 21.2843 7.81504C20.8949 8.20445 20.595 8.67409 20.4057 9.19122L20.1642 9.85038C20.1466 9.89914 20.1143 9.94126 20.0718 9.97103C20.0293 10.0008 19.9787 10.0168 19.9269 10.0168C19.875 10.0168 19.8244 10.0008 19.7819 9.97103C19.7394 9.94126 19.7071 9.89914 19.6895 9.85038L19.448 9.19122C19.2587 8.67409 18.9588 8.20445 18.5694 7.81504C18.18 7.42563 17.7104 7.1258 17.1932 6.93645L16.5336 6.69501C16.4848 6.67731 16.4427 6.64504 16.4129 6.60256C16.3832 6.56009 16.3672 6.50948 16.3672 6.45761C16.3672 6.40574 16.3832 6.35514 16.4129 6.31266C16.4427 6.27019 16.4848 6.23791 16.5336 6.22021L17.1932 5.97878C17.7104 5.78942 18.18 5.4896 18.5694 5.10018C18.9588 4.71077 19.2587 4.24114 19.448 3.724L19.6895 3.06434Z" fill="url(#paint1_linear_4013_66632)"/>
<defs>
<linearGradient id="paint0_linear_4013_66632" x1="10.9786" y1="5.52869" x2="10.9786" y2="24.5122" gradientUnits="userSpaceOnUse">
<stop stop-color="#9F84FD"/>
<stop offset="1" stop-color="#2D1D92"/>
</linearGradient>
<linearGradient id="paint1_linear_4013_66632" x1="19.9266" y1="2.89795" x2="19.9266" y2="10.0168" gradientUnits="userSpaceOnUse">
<stop stop-color="#9F84FD"/>
<stop offset="1" stop-color="#2D1D92"/>
</linearGradient>
</defs>
</svg>
