<svg width="556" height="442" viewBox="0 0 556 442" fill="none" xmlns="http://www.w3.org/2000/svg">
<g clip-path="url(#clip0_1475_103916)">
<path d="M529.051 96.3051C511.961 66.4851 488.441 43.1251 458.491 26.2551C428.541 9.38507 396.221 0.945068 361.541 0.945068C333.481 0.945068 307.151 6.52507 282.521 17.6751C256.561 6.53507 227.641 0.945068 195.731 0.945068C160.871 0.945068 128.301 9.30507 98.0105 25.9951C67.7205 42.7051 44.0305 65.7951 26.9405 95.2751C9.85055 124.775 1.31055 156.895 1.31055 191.665C1.31055 247.905 19.7505 294.435 56.6405 331.255C93.5206 368.065 140.901 386.475 198.771 386.475C229.781 386.475 258.281 381.035 284.261 370.155C308.941 381.025 335.211 386.485 363.061 386.485C397.741 386.485 429.891 377.965 459.511 360.915C489.121 343.875 512.381 320.445 529.311 290.605C546.231 260.785 554.691 228.405 554.691 193.455C554.691 158.505 546.141 126.135 529.061 96.3051H529.051ZM85.8305 306.965C55.2005 277.145 39.8905 239.985 39.8905 195.495C39.8905 151.005 55.5405 113.425 86.8405 82.7551C118.141 52.0751 155.451 36.7351 198.771 36.7351C214.151 36.7351 228.721 38.5151 242.491 42.0651C223.641 57.0051 208.061 75.3351 195.801 97.0751C178.871 127.075 170.421 159.795 170.421 195.245C170.421 230.695 178.961 261.715 196.051 291.375C208.621 313.195 224.641 331.535 244.081 346.435C230.401 349.935 215.981 351.705 200.801 351.705C154.771 351.705 116.451 336.795 85.8205 306.965H85.8305ZM471.691 306.205C441.741 335.865 405.451 350.685 362.811 350.685C349.701 350.685 337.181 349.245 325.251 346.375C333.821 339.715 341.741 332.245 348.991 323.985L348.921 324.305L355.871 329.545L368.771 269.265L367.211 268.085L313.161 297.295L319.471 302.055C308.631 313.105 296.991 322.295 284.571 329.655C273.631 323.045 263.321 314.885 253.671 305.155C223.551 274.815 208.491 237.745 208.491 193.945C208.491 150.145 223.121 112.985 252.401 82.4751C261.551 72.9351 271.401 64.8951 281.961 58.3351C295.671 66.4151 308.341 76.7551 319.981 89.3551L313.531 94.0251L367.381 124.025L368.971 122.875L356.881 62.6451L349.911 67.6951L349.981 68.0451C341.811 58.0551 332.711 49.1151 322.661 41.2651C334.991 38.2351 348.041 36.7151 361.801 36.7151C404.441 36.7151 440.901 51.8851 471.191 82.2251C501.471 112.565 516.621 149.715 516.621 193.695C516.621 237.675 501.651 276.525 471.701 306.185L471.691 306.205Z" fill="white"/>
<path d="M363.061 386.975C335.361 386.975 308.851 381.495 284.261 370.695C258.401 381.495 229.631 386.975 198.781 386.975C141.041 386.975 93.1005 368.345 56.2905 331.605C19.4805 294.865 0.810547 247.785 0.810547 191.665C0.810547 156.965 9.46055 124.455 26.5105 95.0351C43.5605 65.6151 67.5405 42.2351 97.7705 25.5651C128.001 8.89507 160.951 0.445068 195.731 0.445068C227.441 0.445068 256.641 6.05507 282.521 17.1351C307.041 6.06507 333.631 0.445068 361.541 0.445068C396.151 0.445068 428.861 8.98507 458.741 25.8151C488.621 42.6551 512.431 66.2851 529.491 96.0551C546.541 125.835 555.191 158.605 555.191 193.455C555.191 228.305 546.631 261.085 529.741 290.855C512.851 320.625 489.301 344.345 459.761 361.345C430.211 378.355 397.681 386.975 363.061 386.975ZM284.271 369.605L284.471 369.695C308.991 380.495 335.441 385.975 363.071 385.975C397.511 385.975 429.881 377.395 459.271 360.475C488.661 343.555 512.081 319.965 528.881 290.355C545.681 260.745 554.201 228.135 554.201 193.455C554.201 158.775 545.601 126.175 528.631 96.5551C511.661 66.9451 487.981 43.4351 458.261 26.6951C428.531 9.94507 395.991 1.44507 361.551 1.44507C333.711 1.44507 307.191 7.05507 282.741 18.1351L282.541 18.2251L282.341 18.1351C256.521 7.06507 227.391 1.44507 195.731 1.44507C161.131 1.44507 128.331 9.85507 98.2505 26.4351C68.1805 43.0151 44.3305 66.2651 27.3705 95.5351C10.4105 124.805 1.81055 157.145 1.81055 191.665C1.81055 247.515 20.3805 294.355 56.9905 330.895C93.6005 367.445 141.301 385.975 198.771 385.975C229.581 385.975 258.271 380.495 284.071 369.695L284.271 369.615V369.605ZM200.801 352.205C154.851 352.205 116.051 337.105 85.4805 307.325C54.9005 277.545 39.3905 239.925 39.3905 195.505C39.3905 151.085 55.2405 113.035 86.4905 82.4051C117.741 51.7751 155.511 36.2451 198.771 36.2451C214.091 36.2451 228.841 38.0451 242.611 41.5851L243.581 41.8351L242.791 42.4551C224.041 57.3151 208.381 75.7751 196.221 97.3151C179.421 127.085 170.901 160.035 170.901 195.245C170.901 230.455 179.501 261.685 196.471 291.125C208.931 312.755 225.051 331.225 244.371 346.035L245.191 346.665L244.191 346.925C230.501 350.435 215.891 352.215 200.781 352.215L200.801 352.205ZM198.771 37.2351C155.791 37.2351 118.241 52.6651 87.1905 83.1151C56.1305 113.555 40.3905 151.365 40.3905 195.505C40.3905 239.645 55.8006 277.035 86.1805 306.615C116.561 336.205 155.121 351.215 200.811 351.215C215.471 351.215 229.651 349.535 242.971 346.215C223.901 331.435 207.981 313.075 195.631 291.635C178.581 262.045 169.931 229.625 169.931 195.255C169.931 160.885 178.491 126.765 195.381 96.8351C207.431 75.4751 222.911 57.1351 241.411 42.3051C228.001 38.9451 213.661 37.2351 198.791 37.2351H198.771ZM362.811 351.185C349.741 351.185 337.061 349.735 325.141 346.865L324.131 346.625L324.951 345.985C333.461 339.375 341.421 331.865 348.621 323.665L349.891 322.215L349.481 324.095L355.541 328.675L368.211 269.475L367.161 268.685L314.081 297.375L320.221 302.015L319.821 302.425C309.021 313.435 297.251 322.745 284.821 330.105L284.561 330.255L284.301 330.105C273.351 323.495 262.921 315.225 253.301 305.535C223.231 275.245 207.981 237.715 207.981 193.975C207.981 150.235 222.801 112.625 252.031 82.1651C261.171 72.6451 271.151 64.4951 281.691 57.9451L281.951 57.7851L282.211 57.9351C295.901 66.0051 308.731 76.4751 320.341 89.0451L320.721 89.4551L314.451 93.9951L367.341 123.455L368.411 122.685L356.541 63.5251L350.461 67.9351L350.851 69.9351L349.591 68.3851C341.471 58.4451 332.301 49.4651 322.351 41.6751L321.541 41.0451L322.541 40.7951C334.861 37.7651 348.071 36.2251 361.801 36.2251C404.371 36.2251 441.301 51.5851 471.551 81.8751C501.791 112.175 517.131 149.805 517.131 193.695C517.131 237.585 501.971 276.925 472.061 306.535C442.151 336.145 405.401 351.165 362.821 351.165L362.811 351.185ZM326.381 346.135C337.941 348.825 350.191 350.185 362.811 350.185C405.111 350.185 441.631 335.265 471.341 305.845C501.051 276.425 516.121 238.695 516.121 193.715C516.121 148.735 500.881 112.715 470.831 82.6051C440.781 52.5051 404.091 37.2451 361.791 37.2451C348.521 37.2451 335.731 38.6851 323.771 41.5451C333.261 49.0651 342.031 57.6751 349.851 67.1551L357.211 61.8251L369.521 123.135L367.421 124.655L312.611 94.1151L319.241 89.3151C307.871 77.0751 295.341 66.8651 281.981 58.9551C271.601 65.4351 261.781 73.4751 252.771 82.8551C223.731 113.125 209.001 150.515 209.001 193.975C209.001 237.435 224.151 274.745 254.031 304.835C263.521 314.395 273.801 322.555 284.581 329.105C296.691 321.905 308.171 312.835 318.721 302.145L312.241 297.255L367.251 267.515L369.321 269.085L356.191 330.445L348.861 324.915C341.991 332.675 334.431 339.815 326.371 346.155L326.381 346.135Z" fill="white"/>
<path d="M82.99 434.075C80.95 435.695 78.61 436.505 75.96 436.505C73.81 436.505 71.85 435.925 70.09 434.765C68.33 433.605 66.95 432.065 65.95 430.125C64.95 428.195 64.45 426.085 64.45 423.795C64.45 421.505 64.93 419.515 65.89 417.585C66.85 415.655 68.19 414.125 69.9 412.975C71.61 411.825 73.56 411.245 75.74 411.245C77.92 411.245 80.07 411.835 81.96 413.025C83.85 414.215 85.34 415.865 86.42 417.995H90.73V407.385H86.51V411.035C84.97 409.675 83.29 408.635 81.48 407.915C79.67 407.195 77.68 406.835 75.53 406.835C72.32 406.835 69.47 407.555 66.98 408.995C64.49 410.435 62.54 412.475 61.12 415.095C59.71 417.715 59 420.705 59 424.055C59 427.145 59.69 429.985 61.08 432.565C62.46 435.155 64.4 437.205 66.89 438.735C69.38 440.265 72.23 441.035 75.44 441.035C79.34 441.035 82.73 440.025 85.62 437.995C88.51 435.965 90.53 433.105 91.67 429.415L87.45 427.175C86.51 430.145 85.03 432.445 82.99 434.065V434.075Z" fill="white"/>
<path d="M75.4302 441.555C72.1402 441.555 69.1802 440.755 66.6202 439.185C64.0702 437.615 62.0502 435.475 60.6302 432.825C59.2102 430.175 58.4902 427.235 58.4902 424.075C58.4902 420.655 59.2202 417.555 60.6702 414.875C62.1202 412.185 64.1602 410.065 66.7102 408.585C69.2702 407.105 72.2302 406.355 75.5102 406.355C77.7202 406.355 79.7802 406.725 81.6502 407.465C83.1902 408.075 84.6502 408.915 86.0002 409.985V406.905H91.2202V418.515H86.1102L85.9702 418.245C84.9302 416.215 83.4902 414.605 81.6902 413.475C79.8902 412.345 77.8902 411.775 75.7402 411.775C73.5902 411.775 71.8002 412.325 70.1702 413.415C68.5402 414.515 67.2402 415.995 66.3302 417.835C65.4102 419.685 64.9402 421.695 64.9402 423.815C64.9402 425.935 65.4302 428.055 66.3902 429.915C67.3502 431.765 68.6902 433.255 70.3602 434.365C72.0302 435.465 73.9102 436.015 75.9502 436.015C78.4702 436.015 80.7302 435.235 82.6702 433.695C84.6202 432.145 86.0602 429.915 86.9602 427.045L87.1402 426.475L92.2602 429.195L92.1402 429.595C90.9702 433.375 88.8702 436.355 85.9002 438.435C82.9302 440.515 79.4102 441.565 75.4302 441.565V441.555ZM75.5202 407.345C72.4202 407.345 69.6202 408.055 67.2202 409.445C64.8202 410.835 62.9202 412.825 61.5502 415.345C60.1802 417.885 59.4902 420.815 59.4902 424.075C59.4902 427.065 60.1702 429.855 61.5102 432.355C62.8502 434.855 64.7402 436.865 67.1402 438.335C69.5402 439.805 72.3302 440.555 75.4302 440.555C79.2002 440.555 82.5302 439.565 85.3302 437.605C88.0102 435.725 89.9402 433.055 91.0702 429.675L87.7402 427.905C86.7702 430.695 85.2802 432.895 83.3002 434.465C81.1802 436.145 78.7102 437.005 75.9602 437.005C73.7202 437.005 71.6502 436.395 69.8202 435.185C68.0002 433.985 66.5502 432.365 65.5102 430.365C64.4702 428.365 63.9502 426.165 63.9502 423.805C63.9502 421.445 64.4502 419.365 65.4402 417.375C66.4302 415.375 67.8402 413.765 69.6202 412.565C71.4102 411.365 73.4702 410.755 75.7402 410.755C78.0102 410.755 80.2602 411.375 82.2202 412.615C84.1002 413.795 85.6102 415.435 86.7202 417.505H90.2202V407.895H87.0002V412.155L86.1702 411.415C84.6802 410.095 83.0402 409.075 81.2902 408.385C79.5402 407.695 77.6002 407.345 75.5202 407.345Z" fill="white"/>
<path d="M122.08 409.075C119.46 407.585 116.45 406.845 113.05 406.845C109.65 406.845 106.87 407.565 104.3 409.005C101.74 410.445 99.7301 412.455 98.2701 415.015C96.8101 417.575 96.0801 420.495 96.0801 423.765C96.0801 427.035 96.7901 430.025 98.2201 432.655C99.6501 435.285 101.64 437.345 104.21 438.825C106.77 440.315 109.7 441.055 113 441.055C116.3 441.055 119.32 440.345 121.94 438.915C124.56 437.485 126.62 435.465 128.1 432.835C129.59 430.215 130.33 427.215 130.33 423.845C130.33 420.475 129.61 417.745 128.17 415.165C126.73 412.585 124.69 410.555 122.07 409.065L122.08 409.075ZM123.43 430.135C122.46 432.095 121.08 433.675 119.29 434.855C117.5 436.035 115.47 436.635 113.2 436.635C110.93 436.635 108.8 436.095 107.03 435.005C105.26 433.915 103.9 432.405 102.95 430.455C102.01 428.505 101.53 426.285 101.53 423.795C101.53 421.455 102 419.315 102.95 417.405C103.9 415.485 105.23 413.985 106.96 412.885C108.69 411.785 110.67 411.245 112.92 411.245C115.17 411.245 117.26 411.805 119.07 412.925C120.89 414.045 122.31 415.575 123.34 417.515C124.37 419.455 124.89 421.565 124.89 423.835C124.89 426.105 124.4 428.155 123.43 430.115V430.135Z" fill="white"/>
<path d="M113.01 441.555C109.64 441.555 106.6 440.785 103.97 439.255C101.34 437.725 99.2598 435.585 97.7898 432.885C96.3298 430.195 95.5898 427.125 95.5898 423.755C95.5898 420.385 96.3498 417.385 97.8398 414.765C99.3398 412.135 101.43 410.045 104.06 408.565C106.69 407.085 109.71 406.335 113.05 406.335C116.39 406.335 119.64 407.105 122.33 408.635C125.02 410.165 127.14 412.275 128.62 414.925C130.1 417.565 130.85 420.565 130.85 423.845C130.85 427.285 130.08 430.395 128.56 433.075C127.03 435.765 124.89 437.875 122.2 439.345C119.51 440.805 116.42 441.545 113.02 441.545L113.01 441.555ZM113.05 407.345C109.89 407.345 107.03 408.055 104.55 409.445C102.08 410.835 100.11 412.795 98.7098 415.265C97.2998 417.735 96.5898 420.595 96.5898 423.765C96.5898 426.935 97.2898 429.875 98.6698 432.415C100.05 434.955 102 436.965 104.47 438.395C106.95 439.835 109.82 440.555 113.01 440.555C116.2 440.555 119.18 439.855 121.71 438.475C124.24 437.095 126.24 435.115 127.68 432.595C129.12 430.065 129.84 427.125 129.84 423.855C129.84 420.585 129.13 417.905 127.74 415.415C126.35 412.935 124.36 410.945 121.83 409.505C119.3 408.065 116.34 407.335 113.05 407.335V407.345ZM113.2 437.135C110.77 437.135 108.61 436.565 106.77 435.435C104.92 434.305 103.49 432.705 102.5 430.675C101.53 428.665 101.03 426.355 101.03 423.795C101.03 421.385 101.52 419.165 102.5 417.185C103.48 415.195 104.89 413.605 106.69 412.465C108.49 411.325 110.59 410.755 112.91 410.755C115.23 410.755 117.44 411.345 119.33 412.515C121.21 413.675 122.71 415.285 123.78 417.295C124.85 419.295 125.39 421.505 125.39 423.845C125.39 426.185 124.88 428.325 123.88 430.355C122.87 432.385 121.42 434.045 119.57 435.275C117.71 436.515 115.57 437.135 113.21 437.135H113.2ZM112.92 411.755C110.79 411.755 108.87 412.275 107.23 413.315C105.59 414.355 104.3 415.805 103.4 417.625C102.49 419.465 102.03 421.545 102.03 423.795C102.03 426.195 102.49 428.365 103.4 430.235C104.3 432.085 105.61 433.545 107.29 434.575C108.97 435.605 110.96 436.125 113.2 436.125C115.44 436.125 117.32 435.555 119.01 434.425C120.72 433.295 122.05 431.765 122.98 429.895C123.91 428.015 124.39 425.975 124.39 423.835C124.39 421.695 123.89 419.615 122.9 417.755C121.91 415.905 120.54 414.425 118.81 413.355C117.08 412.285 115.1 411.745 112.92 411.745V411.755Z" fill="white"/>
<path d="M154.051 430.065L145.331 407.385H133.971V411.525H137.991V436.375H133.971V440.505H145.721V436.375H142.081V411.525L153.371 440.855H154.361L165.741 411.525V436.375H161.831V440.505H174.291V436.375H170.291V411.525H174.291V407.385H162.821L154.051 430.065Z" fill="white"/>
<path d="M154.7 441.355H153.03L142.58 414.215V435.875H146.23V441.005H133.48V435.875H137.5V412.025H133.48V406.895H145.68L154.06 428.685L162.48 406.895H174.79V412.025H170.79V435.875H174.79V441.005H161.33V435.875H165.24V414.195L154.7 441.355ZM153.71 440.355H154.01L166.23 408.855V436.875H162.32V440.005H173.78V436.875H169.78V411.025H173.78V407.895H163.15L154.04 431.465L144.98 407.895H134.46V411.025H138.48V436.875H134.46V440.005H145.21V436.875H141.56V408.835L153.7 440.355H153.71Z" fill="white"/>
<path d="M196.801 408.465C194.841 407.745 192.201 407.385 188.881 407.385H176.551V411.515H180.681V436.365H176.551V440.495H190.001V436.365H185.691V427.795H190.041C194.481 427.765 197.631 426.815 199.491 424.935C201.351 423.055 202.281 420.615 202.281 417.595C202.281 415.165 201.861 413.215 201.011 411.735C200.161 410.265 198.761 409.165 196.801 408.445V408.465ZM196.351 421.305C195.781 422.225 194.891 422.865 193.671 423.235C192.451 423.605 190.831 423.795 188.791 423.795H185.691V411.515H189.141C192.081 411.515 194.161 411.995 195.381 412.955C196.601 413.915 197.201 415.425 197.201 417.495C197.201 419.125 196.911 420.395 196.341 421.305H196.351Z" fill="white"/>
<path d="M190.501 441.005H176.051V435.875H180.181V412.025H176.051V406.895H188.881C192.251 406.895 194.971 407.265 196.971 408.005C199.031 408.765 200.531 409.935 201.441 411.505C202.331 413.045 202.781 415.105 202.781 417.615C202.781 420.755 201.791 423.345 199.841 425.305C197.891 427.265 194.591 428.275 190.041 428.305H186.191V435.875H190.501V441.005ZM177.051 440.005H189.501V436.875H185.191V427.305H190.041C194.321 427.275 197.381 426.365 199.131 424.595C200.881 422.825 201.781 420.475 201.781 417.605C201.781 415.275 201.371 413.385 200.571 411.995C199.781 410.635 198.461 409.605 196.621 408.925C194.731 408.235 192.121 407.875 188.871 407.875H177.041V411.005H181.171V436.855H177.041V439.985L177.051 440.005ZM188.791 424.305H185.191V411.025H189.141C192.231 411.025 194.371 411.535 195.691 412.575C197.031 413.635 197.701 415.285 197.701 417.505C197.701 419.215 197.391 420.585 196.771 421.585C196.141 422.605 195.141 423.325 193.811 423.735C192.551 424.125 190.861 424.315 188.791 424.315V424.305ZM186.191 423.305H188.791C190.771 423.305 192.361 423.125 193.521 422.765C194.631 422.425 195.411 421.865 195.921 421.045C196.441 420.215 196.701 419.025 196.701 417.495C196.701 415.575 196.171 414.215 195.071 413.345C193.951 412.465 191.951 412.015 189.141 412.015H186.191V423.295V423.305Z" fill="white"/>
<path d="M224.39 436.375H213.51V411.525H217.77V407.385H204.24V411.525H208.5V436.375H204.24V440.505H228.49V426.115H224.39V436.375Z" fill="white"/>
<path d="M228.99 441.005H203.73V435.875H207.99V412.025H203.73V406.895H218.27V412.025H214.01V435.875H223.89V425.615H229V441.005H228.99ZM204.74 440.005H228V426.615H224.89V436.875H213.01V411.025H217.27V407.895H204.73V411.025H208.99V436.875H204.73V440.005H204.74Z" fill="white"/>
<path d="M231.42 411.525H235V436.375H231.42V440.505H243.61V436.375H240.01V411.525H243.61V407.385H231.42V411.525Z" fill="white"/>
<path d="M244.11 441.005H230.92V435.875H234.5V412.025H230.92V406.895H244.11V412.025H240.51V435.875H244.11V441.005ZM231.92 440.005H243.11V436.875H239.51V411.025H243.11V407.895H231.92V411.025H235.5V436.875H231.92V440.005Z" fill="white"/>
<path d="M267.981 411.385H271.961V407.385H254.751V411.385H258.731L249.811 436.365H245.811V440.495H258.951V436.365H254.751L257.321 428.855H269.341L271.911 436.365H267.581V440.495H280.631V436.365H276.941L267.981 411.385ZM258.621 424.965L263.301 411.385H263.451L268.021 424.965H258.621Z" fill="white"/>
<path d="M281.14 441.005H267.09V435.875H271.22L268.99 429.365H257.69L255.46 435.875H259.46V441.005H245.32V435.875H249.47L258.03 411.895H254.26V406.895H272.47V411.895H268.7L277.31 435.875H281.15V441.005H281.14ZM268.08 440.005H280.13V436.875H276.59L267.27 410.895H271.46V407.895H255.25V410.895H259.44L250.16 436.875H246.31V440.005H258.45V436.875H254.05L256.96 428.365H269.69L272.6 436.875H268.07V440.005H268.08ZM268.72 425.465H257.92L262.94 410.885H263.81L268.72 425.465ZM259.32 424.465H267.33L263.37 412.715L259.32 424.465Z" fill="white"/>
<path d="M303.47 411.525H308.19V433.115L293.64 407.385H282.35V411.525H287.07V436.375H282.35V440.505H295.91V436.375H291.16V412.555L307.05 440.855H312.19V411.525H317.04V407.385H303.47V411.525Z" fill="white"/>
<path d="M312.69 441.355H306.75L291.66 414.465V435.875H296.41V441.005H281.85V435.875H286.57V412.025H281.85V406.895H293.94L307.69 431.225V412.025H302.97V406.895H317.55V412.025H312.69V441.355ZM307.34 440.355H311.69V411.025H316.55V407.895H303.97V411.025H308.69V435.025L293.35 407.895H282.85V411.025H287.57V436.875H282.85V440.005H295.41V436.875H290.66V410.645L307.34 440.355Z" fill="white"/>
<path d="M344.271 434.075C342.231 435.695 339.891 436.505 337.241 436.505C335.091 436.505 333.131 435.925 331.371 434.765C329.611 433.605 328.231 432.065 327.231 430.125C326.231 428.195 325.731 426.085 325.731 423.795C325.731 421.505 326.211 419.515 327.171 417.585C328.131 415.655 329.471 414.125 331.181 412.975C332.891 411.825 334.841 411.245 337.021 411.245C339.201 411.245 341.351 411.835 343.241 413.025C345.131 414.215 346.621 415.865 347.701 417.995H352.011V407.385H347.791V411.035C346.251 409.675 344.571 408.635 342.761 407.915C340.951 407.195 338.961 406.835 336.811 406.835C333.601 406.835 330.751 407.555 328.261 408.995C325.771 410.435 323.821 412.475 322.401 415.095C320.991 417.715 320.281 420.705 320.281 424.055C320.281 427.145 320.971 429.985 322.361 432.565C323.741 435.155 325.681 437.205 328.171 438.735C330.661 440.265 333.511 441.035 336.721 441.035C340.621 441.035 344.011 440.025 346.901 437.995C349.791 435.965 351.811 433.105 352.951 429.415L348.731 427.175C347.791 430.145 346.311 432.445 344.271 434.065V434.075Z" fill="white"/>
<path d="M336.711 441.555C333.421 441.555 330.461 440.755 327.901 439.185C325.351 437.615 323.331 435.475 321.911 432.825C320.491 430.175 319.771 427.235 319.771 424.075C319.771 420.655 320.502 417.555 321.952 414.875C323.402 412.185 325.441 410.065 327.991 408.585C330.551 407.105 333.512 406.355 336.792 406.355C339.002 406.355 341.061 406.725 342.931 407.465C344.471 408.075 345.931 408.915 347.281 409.985V406.905H352.501V418.515H347.391L347.251 418.245C346.211 416.215 344.771 414.605 342.971 413.475C341.171 412.345 339.171 411.775 337.021 411.775C334.871 411.775 333.082 412.325 331.452 413.415C329.822 414.515 328.521 415.995 327.611 417.835C326.691 419.685 326.221 421.695 326.221 423.815C326.221 425.935 326.711 428.055 327.671 429.915C328.631 431.765 329.971 433.255 331.641 434.365C333.311 435.465 335.192 436.015 337.232 436.015C339.752 436.015 342.012 435.235 343.952 433.695C345.902 432.145 347.341 429.915 348.241 427.045L348.421 426.475L353.542 429.195L353.421 429.595C352.251 433.375 350.151 436.355 347.181 438.435C344.211 440.515 340.691 441.565 336.711 441.565V441.555ZM336.801 407.345C333.701 407.345 330.901 408.055 328.501 409.445C326.101 410.835 324.201 412.825 322.831 415.345C321.461 417.885 320.771 420.815 320.771 424.075C320.771 427.065 321.452 429.855 322.792 432.355C324.132 434.855 326.021 436.865 328.421 438.335C330.821 439.805 333.611 440.555 336.711 440.555C340.481 440.555 343.811 439.565 346.611 437.605C349.291 435.725 351.222 433.055 352.352 429.675L349.021 427.905C348.051 430.695 346.561 432.895 344.581 434.465C342.461 436.145 339.991 437.005 337.241 437.005C335.001 437.005 332.932 436.395 331.102 435.185C329.282 433.985 327.832 432.365 326.792 430.365C325.752 428.365 325.232 426.165 325.232 423.805C325.232 421.445 325.731 419.365 326.721 417.375C327.711 415.375 329.121 413.765 330.901 412.565C332.691 411.365 334.751 410.755 337.021 410.755C339.291 410.755 341.541 411.375 343.501 412.615C345.381 413.795 346.891 415.435 348.001 417.505H351.501V407.895H348.281V412.155L347.452 411.415C345.962 410.095 344.322 409.075 342.572 408.385C340.822 407.695 338.881 407.345 336.801 407.345Z" fill="white"/>
<path d="M355.85 411.525H360.11V436.375H355.85V440.505H383.38V430.325H379.29V436.375H365.12V425.515H377.45V421.385H365.12V411.525H379.29V417.055H383.38V407.385H355.85V411.525Z" fill="white"/>
<path d="M383.88 441.005H355.35V435.875H359.61V412.025H355.35V406.895H383.88V417.565H378.79V412.025H365.62V420.895H377.95V426.025H365.62V435.875H378.79V429.835H383.88V441.005ZM356.35 440.005H382.88V430.835H379.79V436.875H364.62V425.025H376.95V421.895H364.62V411.025H379.79V416.565H382.88V407.895H356.35V411.025H360.61V436.875H356.35V440.005Z" fill="white"/>
<path d="M425.432 409.075C422.812 407.585 419.802 406.845 416.402 406.845C413.002 406.845 410.222 407.565 407.652 409.005C405.092 410.445 403.082 412.455 401.622 415.015C400.162 417.575 399.432 420.495 399.432 423.765C399.432 427.035 400.142 430.025 401.572 432.655C403.002 435.285 404.992 437.345 407.562 438.825C410.122 440.315 413.052 441.055 416.352 441.055C419.652 441.055 422.672 440.345 425.292 438.915C427.912 437.485 429.972 435.465 431.452 432.835C432.942 430.215 433.682 427.215 433.682 423.845C433.682 420.475 432.962 417.745 431.522 415.165C430.082 412.585 428.042 410.555 425.422 409.065L425.432 409.075ZM426.792 430.135C425.822 432.095 424.442 433.675 422.652 434.855C420.862 436.035 418.832 436.635 416.562 436.635C414.292 436.635 412.162 436.095 410.392 435.005C408.622 433.915 407.262 432.405 406.312 430.455C405.372 428.505 404.892 426.285 404.892 423.795C404.892 421.455 405.362 419.315 406.312 417.405C407.262 415.485 408.592 413.985 410.322 412.885C412.052 411.785 414.032 411.245 416.282 411.245C418.532 411.245 420.622 411.805 422.432 412.925C424.252 414.045 425.672 415.575 426.702 417.515C427.732 419.455 428.252 421.565 428.252 423.835C428.252 426.105 427.762 428.155 426.792 430.115V430.135Z" fill="white"/>
<path d="M416.361 441.555C412.991 441.555 409.951 440.785 407.321 439.255C404.691 437.725 402.611 435.585 401.141 432.885C399.681 430.195 398.941 427.125 398.941 423.755C398.941 420.385 399.701 417.385 401.191 414.765C402.691 412.135 404.781 410.045 407.411 408.565C410.041 407.085 413.061 406.335 416.401 406.335C419.741 406.335 422.991 407.105 425.681 408.635C428.371 410.165 430.491 412.275 431.971 414.925C433.451 417.565 434.201 420.565 434.201 423.845C434.201 427.285 433.431 430.395 431.911 433.075C430.381 435.765 428.241 437.875 425.551 439.345C422.861 440.805 419.771 441.545 416.371 441.545L416.361 441.555ZM416.401 407.345C413.241 407.345 410.381 408.055 407.901 409.445C405.431 410.835 403.461 412.795 402.061 415.265C400.651 417.735 399.941 420.595 399.941 423.765C399.941 426.935 400.641 429.875 402.021 432.415C403.401 434.955 405.351 436.965 407.821 438.395C410.301 439.835 413.171 440.555 416.361 440.555C419.551 440.555 422.531 439.855 425.061 438.475C427.591 437.095 429.591 435.115 431.031 432.595C432.471 430.065 433.191 427.125 433.191 423.855C433.191 420.585 432.481 417.905 431.091 415.415C429.701 412.935 427.711 410.945 425.181 409.505C422.651 408.065 419.691 407.335 416.401 407.335V407.345ZM416.561 437.135C414.131 437.135 411.971 436.565 410.131 435.435C408.281 434.305 406.851 432.705 405.861 430.675C404.891 428.665 404.391 426.355 404.391 423.795C404.391 421.385 404.881 419.165 405.861 417.185C406.841 415.195 408.251 413.605 410.051 412.465C411.851 411.325 413.951 410.755 416.271 410.755C418.591 410.755 420.801 411.345 422.691 412.515C424.571 413.675 426.071 415.285 427.141 417.295C428.211 419.295 428.751 421.505 428.751 423.845C428.751 426.185 428.241 428.325 427.241 430.355C426.231 432.385 424.781 434.045 422.931 435.275C421.071 436.515 418.931 437.135 416.571 437.135H416.561ZM416.271 411.755C414.141 411.755 412.221 412.275 410.581 413.315C408.941 414.355 407.651 415.805 406.751 417.625C405.841 419.465 405.381 421.545 405.381 423.795C405.381 426.195 405.841 428.365 406.751 430.235C407.651 432.085 408.961 433.545 410.641 434.575C412.321 435.605 414.311 436.125 416.551 436.125C418.791 436.125 420.671 435.555 422.361 434.425C424.071 433.295 425.401 431.765 426.331 429.895C427.261 428.015 427.741 425.975 427.741 423.835C427.741 421.695 427.241 419.615 426.251 417.755C425.261 415.905 423.891 414.425 422.161 413.355C420.431 412.285 418.451 411.745 416.271 411.745V411.755Z" fill="white"/>
<path d="M458.04 411.525H462.77V433.115L448.22 407.385H436.93V411.525H441.65V436.375H436.93V440.505H450.48V436.375H445.74V412.555L461.62 440.855H466.77V411.525H471.62V407.385H458.04V411.525Z" fill="white"/>
<path d="M467.27 441.355H461.33L446.24 414.465V435.875H450.99V441.005H436.43V435.875H441.15V412.025H436.43V406.895H448.52L462.27 431.225V412.025H457.55V406.895H472.13V412.025H467.27V441.355ZM461.92 440.355H466.27V411.025H471.13V407.895H458.55V411.025H463.27V435.025L447.93 407.895H437.43V411.025H442.15V436.875H437.43V440.005H449.99V436.875H445.24V410.645L461.92 440.355Z" fill="white"/>
<path d="M473.34 411.525H477.6V436.375H473.34V440.505H500.87V430.325H496.78V436.375H482.61V425.515H494.93V421.385H482.61V411.525H496.78V417.055H500.87V407.385H473.34V411.525Z" fill="white"/>
<path d="M501.37 441.005H472.84V435.875H477.1V412.025H472.84V406.895H501.37V417.565H496.28V412.025H483.11V420.895H495.44V426.025H483.11V435.875H496.28V429.835H501.37V441.005ZM473.84 440.005H500.37V430.835H497.28V436.875H482.11V425.025H494.44V421.895H482.11V411.025H497.28V416.565H500.37V407.895H473.84V411.025H478.1V436.875H473.84V440.005Z" fill="white"/>
</g>
<defs>
<clipPath id="clip0_1475_103916">
<rect width="554.38" height="441.11" fill="white" transform="translate(0.810547 0.445068)"/>
</clipPath>
</defs>
</svg>
